# Wavefront OBJ exported by MilkShape 3D

mtllib rus_build_5et_01_LOD2.mtl

v 57.000000 44.500000 -16.000000
v 0.000000 44.500000 -16.000000
v 57.000000 0.000000 -16.000000
v 0.000000 0.000000 -16.000000
v -57.000000 44.500000 -16.000000
v 0.000000 44.500000 -16.000000
v -57.000000 0.000000 -16.000000
v 0.000000 0.000000 -16.000000
v -57.000000 44.500000 16.000000
v 0.000000 44.500000 16.000000
v -57.000000 0.000000 16.000000
v 0.000000 0.000000 16.000000
v 57.000000 44.500000 16.000000
v 0.000000 44.500000 16.000000
v 57.000000 0.000000 16.000000
v 0.000000 0.000000 16.000000
v 57.000000 44.500000 16.000000
v 57.000000 44.500000 -16.000000
v 57.000000 0.000000 16.000000
v 57.000000 0.000000 -16.000000
v -57.000000 44.500000 -16.000000
v -57.000000 44.500000 16.000000
v -57.000000 0.000000 -16.000000
v -57.000000 0.000000 16.000000
v 59.000000 44.500000 18.000000
v 41.000000 44.500000 18.000000
v 41.000000 44.500000 18.000000
v -41.000000 44.500000 18.000000
v -59.000000 44.500000 18.000000
v 59.000000 44.500000 0.000000
v 41.000000 49.000000 0.000000
v 41.000000 49.000000 0.000000
v -41.000000 49.000000 0.000000
v -59.000000 44.500000 0.000000
v -59.000000 44.500000 -18.000000
v -41.000000 44.500000 -18.000000
v -41.000000 44.500000 -18.000000
v 41.000000 44.500000 -18.000000
v 59.000000 44.500000 -18.000000
v -59.000000 44.500000 0.000000
v -41.000000 49.000000 0.000000
v -41.000000 49.000000 0.000000
v 41.000000 49.000000 0.000000
v 59.000000 44.500000 0.000000
# 44 vertices

vt 0.000000 0.859375
vt 0.000000 0.687500
vt 0.218750 0.687500
vt 0.218750 0.859375
vt 0.343750 0.859375
vt 0.343750 0.687500
vt 0.562500 0.687500
vt 0.562500 0.859375
vt 1.000000 0.000000
vt 1.000000 0.046875
vt 0.933263 0.046875
vt 0.933263 0.000000
vt 0.629237 0.046875
vt 0.629237 0.000000
vt 0.562500 0.046875
vt 0.562500 0.000000
# 16 texture coordinates

vn 0.000000 0.000000 -1.000000
vn 0.000000 0.000000 1.000000
vn 1.000000 0.000000 0.000000
vn -1.000000 0.000000 0.000000
vn 0.123091 0.984732 0.123091
vn 0.242536 0.970142 0.000000
vn 0.000000 0.970142 0.242536
vn -0.061314 0.981023 0.183942
vn -0.242536 0.970142 0.000000
vn -0.123091 0.984732 0.123091
vn -0.123091 0.984732 -0.123091
vn 0.000000 0.970142 -0.242536
vn 0.061314 0.981023 -0.183942
vn 0.123091 0.984732 -0.123091
# 14 normals

g Regroup15
usemtl rus_build_LOD_01
s 1
f 1/1/1 3/2/1 4/3/1
f 1/1/1 4/3/1 2/4/1
f 8/3/1 7/2/1 5/1/1
f 6/4/1 8/3/1 5/1/1
f 9/5/2 11/6/2 12/7/2
f 9/5/2 12/7/2 10/8/2
f 16/7/2 15/6/2 13/5/2
f 14/8/2 16/7/2 13/5/2
f 17/4/3 19/3/3 20/6/3
f 17/4/3 20/6/3 18/5/3
f 21/4/4 23/3/4 24/6/4
f 21/4/4 24/6/4 22/5/4
f 25/9/5 30/10/6 31/11/5
f 25/9/5 31/11/5 26/12/7
f 27/12/7 32/11/7 33/13/8
f 27/12/7 33/13/8 28/14/7
f 33/13/8 34/15/9 29/16/10
f 33/13/8 29/16/10 28/14/7
f 35/9/11 40/10/9 41/11/11
f 35/9/11 41/11/11 36/12/12
f 37/12/12 42/11/12 43/13/13
f 37/12/12 43/13/13 38/14/12
f 43/13/13 44/15/6 39/16/14
f 43/13/13 39/16/14 38/14/12
# 24 triangles in group

# 24 triangles total

