# Wavefront OBJ exported by MilkShape 3D

mtllib rus_build_4et_01_LOD2.mtl

v 57.000000 36.500000 -16.000000
v -57.000000 36.500000 -16.000000
v 57.000000 0.000000 -16.000000
v -57.000000 0.000000 -16.000000
v -57.000000 36.500000 16.000000
v 57.000000 36.500000 16.000000
v -57.000000 0.000000 16.000000
v 57.000000 0.000000 16.000000
v 57.000000 36.500000 16.000000
v 57.000000 36.500000 -16.000000
v 57.000000 0.000000 16.000000
v 57.000000 0.000000 -16.000000
v -57.000000 36.500000 -16.000000
v -57.000000 36.500000 16.000000
v -57.000000 0.000000 -16.000000
v -57.000000 0.000000 16.000000
v 59.000000 36.500000 18.000000
v 41.000000 36.500000 18.000000
v 41.000000 36.500000 18.000000
v -41.000000 36.500000 18.000000
v -59.000000 36.500000 18.000000
v 59.000000 36.500000 0.000000
v 41.000000 41.000000 0.000000
v 41.000000 41.000000 0.000000
v -41.000000 41.000000 0.000000
v -59.000000 36.500000 0.000000
v -59.000000 36.500000 -18.000000
v -41.000000 36.500000 -18.000000
v -41.000000 36.500000 -18.000000
v 41.000000 36.500000 -18.000000
v 59.000000 36.500000 -18.000000
v -59.000000 36.500000 0.000000
v -41.000000 41.000000 0.000000
v -41.000000 41.000000 0.000000
v 41.000000 41.000000 0.000000
v 59.000000 36.500000 0.000000
# 36 vertices

vt 0.562500 1.000000
vt 0.562500 0.859375
vt 1.000000 0.859375
vt 1.000000 1.000000
vt 0.000000 1.000000
vt 0.000000 0.859375
vt 0.437500 0.859375
vt 0.437500 1.000000
vt 1.000000 0.000000
vt 1.000000 0.046875
vt 0.933263 0.046875
vt 0.933263 0.000000
vt 0.629237 0.046875
vt 0.629237 0.000000
vt 0.562500 0.046875
vt 0.562500 0.000000
# 16 texture coordinates

vn 0.000000 0.000000 -1.000000
vn 0.000000 0.000000 1.000000
vn 1.000000 0.000000 0.000000
vn -1.000000 0.000000 0.000000
vn 0.123091 0.984732 0.123091
vn 0.242536 0.970142 0.000000
vn 0.000000 0.970142 0.242536
vn -0.061314 0.981023 0.183942
vn -0.242536 0.970142 0.000000
vn -0.123091 0.984732 0.123091
vn -0.123091 0.984732 -0.123091
vn 0.000000 0.970142 -0.242536
vn 0.061314 0.981023 -0.183942
vn 0.123091 0.984732 -0.123091
# 14 normals

g Regroup14
usemtl rus_build_LOD_01
s 1
f 1/1/1 3/2/1 4/3/1
f 1/1/1 4/3/1 2/4/1
f 5/5/2 7/6/2 8/7/2
f 5/5/2 8/7/2 6/8/2
f 9/8/3 11/7/3 12/2/3
f 9/8/3 12/2/3 10/1/3
f 13/8/4 15/7/4 16/2/4
f 13/8/4 16/2/4 14/1/4
f 17/9/5 22/10/6 23/11/5
f 17/9/5 23/11/5 18/12/7
f 19/12/7 24/11/7 25/13/8
f 19/12/7 25/13/8 20/14/7
f 25/13/8 26/15/9 21/16/10
f 25/13/8 21/16/10 20/14/7
f 27/9/11 32/10/9 33/11/11
f 27/9/11 33/11/11 28/12/12
f 29/12/12 34/11/12 35/13/13
f 29/12/12 35/13/13 30/14/12
f 35/13/13 36/15/6 31/16/14
f 35/13/13 31/16/14 30/14/12
# 20 triangles in group

# 20 triangles total

